<?xml version="1.0" encoding="UTF-8" standalone="no"?>
<svg width="400px" height="400px" viewBox="0 0 400 400" version="1.1" xmlns="http://www.w3.org/2000/svg" xmlns:xlink="http://www.w3.org/1999/xlink">
    <!-- Generator: Sketch 41 (35326) - http://www.bohemiancoding.com/sketch -->
    <title>Slice</title>
    <desc>Created with Sketch.</desc>
    <defs></defs>
    <g id="Page-1" stroke="none" stroke-width="1" fill="none" fill-rule="evenodd">
        <path d="M149.844889,333.834586 L154.922731,303.759398 L245.349595,303.759398 L250.022433,333.834586 L149.844889,333.834586 Z M174.340035,210.526316 L225.855876,210.526316 L240.703503,264.661654 L160.168689,264.661654 L174.340035,210.526316 Z M204.413548,132.330827 L222.558525,198.496241 L177.488374,198.496241 L194.808058,132.330827 L204.413548,132.330827 Z M267.873208,288.721805 L274.005592,288.721805 L274.005592,264.661654 L259.157965,264.661654 L224.025713,132.330827 L231.976796,132.330827 L231.976796,108.270677 L217.637336,108.270677 L205.231199,68.7338346 L205.231199,0 L189.948001,0 L189.948001,68.7338346 L181.362664,108.270677 L163.202404,108.270677 L163.202404,132.330827 L174.974287,132.330827 L139.842035,264.661654 L117.352809,264.661654 L117.352809,288.721805 L131.126792,288.721805 L83,400 L133.50715,400 L139.016743,398.475188 L147.816044,345.864662 L251.890804,345.864662 L259.983257,398.475188 L265.49285,400 L316,400 L267.873208,288.721805 L267.873208,288.721805 Z" id="Fill-641" fill="#FFFFFF"></path>
    </g>
</svg>