<?xml version="1.0" encoding="UTF-8" standalone="no"?>
<svg width="400px" height="400px" viewBox="0 0 400 400" version="1.1" xmlns="http://www.w3.org/2000/svg" xmlns:xlink="http://www.w3.org/1999/xlink">
    <!-- Generator: Sketch 41 (35326) - http://www.bohemiancoding.com/sketch -->
    <title>Slice</title>
    <desc>Created with Sketch.</desc>
    <defs></defs>
    <g id="Page-1" stroke="none" stroke-width="1" fill="none" fill-rule="evenodd">
        <path d="M251.12766,311.764706 L266.276596,311.764706 L266.276596,250 L251.12766,250 L251.12766,311.764706 Z M220.829787,311.764706 L235.978723,311.764706 L235.978723,250 L220.829787,250 L220.829787,311.764706 Z M190.531915,311.764706 L205.680851,311.764706 L205.680851,250 L190.531915,250 L190.531915,311.764706 Z M160.234043,311.764706 L175.382979,311.764706 L175.382979,250 L160.234043,250 L160.234043,311.764706 Z M129.93617,311.764706 L145.085106,311.764706 L145.085106,250 L129.93617,250 L129.93617,311.764706 Z M160.234043,217.647059 L175.382979,217.647059 L175.382979,167.647059 L160.234043,167.647059 L160.234043,217.647059 Z M160.234043,150 L175.382979,150 L175.382979,100 L160.234043,100 L160.234043,150 Z M190.531915,217.647059 L205.680851,217.647059 L205.680851,167.647059 L190.531915,167.647059 L190.531915,217.647059 Z M220.829787,217.647059 L235.978723,217.647059 L235.978723,167.647059 L220.829787,167.647059 L220.829787,217.647059 Z M220.829787,150 L235.978723,150 L235.978723,100 L220.829787,100 L220.829787,150 Z M190.531915,150 L205.680851,150 L205.680851,100 L190.531915,100 L190.531915,150 Z M270.06383,217.647059 L270.06383,82.3529412 L247.340426,82.3529412 L247.340426,47.0588235 L213.255319,47.0588235 L213.255319,0 L186.744681,0 L186.744681,47.0588235 L152.659574,47.0588235 L152.659574,82.3529412 L129.93617,82.3529412 L129.93617,217.647059 L111,217.647059 L111,400 L289,400 L289,217.647059 L270.06383,217.647059 L270.06383,217.647059 Z" id="Fill-756" fill="#001273"></path>
    </g>
</svg>